<svg width="200" height="200" viewBox="0 0 200 200" fill="none" xmlns="http://www.w3.org/2000/svg">
  <defs>
    <!-- ============ GRADIENTS ============ -->

    <!-- Primary background: deep midnight -->
    <linearGradient id="bg-midnight" x1="100" y1="4" x2="100" y2="196" gradientUnits="userSpaceOnUse">
      <stop offset="0" stop-color="#0A1628"/>
      <stop offset="0.4" stop-color="#0C1E3A"/>
      <stop offset="0.7" stop-color="#081A30"/>
      <stop offset="1" stop-color="#040E1C"/>
    </linearGradient>

    <!-- Outer border: brushed steel with teal highlights -->
    <linearGradient id="border-steel" x1="20" y1="10" x2="180" y2="190" gradientUnits="userSpaceOnUse">
      <stop offset="0" stop-color="#4FD1C5"/>
      <stop offset="0.25" stop-color="#81E6D9"/>
      <stop offset="0.5" stop-color="#2DD4BF"/>
      <stop offset="0.75" stop-color="#0D9488"/>
      <stop offset="1" stop-color="#4FD1C5"/>
    </linearGradient>

    <!-- Inner border: subtle teal -->
    <linearGradient id="border-inner" x1="100" y1="20" x2="100" y2="180" gradientUnits="userSpaceOnUse">
      <stop offset="0" stop-color="#2DD4BF" stop-opacity="0.5"/>
      <stop offset="0.5" stop-color="#0D9488" stop-opacity="0.3"/>
      <stop offset="1" stop-color="#2DD4BF" stop-opacity="0.5"/>
    </linearGradient>

    <!-- Radial depth field -->
    <radialGradient id="depth-field" cx="100" cy="100" r="85" gradientUnits="userSpaceOnUse">
      <stop offset="0" stop-color="#0F2942"/>
      <stop offset="0.5" stop-color="#0A1F35"/>
      <stop offset="1" stop-color="#050F1E"/>
    </radialGradient>

    <!-- Core radiance: warm amber -->
    <radialGradient id="core-radiance" cx="100" cy="100" r="35" gradientUnits="userSpaceOnUse">
      <stop offset="0" stop-color="#FCD34D" stop-opacity="0.7"/>
      <stop offset="0.3" stop-color="#F59E0B" stop-opacity="0.4"/>
      <stop offset="0.6" stop-color="#D97706" stop-opacity="0.15"/>
      <stop offset="1" stop-color="#92400E" stop-opacity="0"/>
    </radialGradient>

    <!-- Core center: hot white-gold -->
    <radialGradient id="core-hot" cx="100" cy="100" r="14" gradientUnits="userSpaceOnUse">
      <stop offset="0" stop-color="#FFFBEB"/>
      <stop offset="0.4" stop-color="#FDE68A"/>
      <stop offset="0.7" stop-color="#FBBF24"/>
      <stop offset="1" stop-color="#F59E0B" stop-opacity="0.6"/>
    </radialGradient>

    <!-- Shield facet gradient A (upper-left) -->
    <linearGradient id="facet-a" x1="50" y1="30" x2="100" y2="100" gradientUnits="userSpaceOnUse">
      <stop offset="0" stop-color="#2DD4BF" stop-opacity="0.12"/>
      <stop offset="1" stop-color="#0D9488" stop-opacity="0.02"/>
    </linearGradient>

    <!-- Shield facet gradient B (upper-right) -->
    <linearGradient id="facet-b" x1="150" y1="30" x2="100" y2="100" gradientUnits="userSpaceOnUse">
      <stop offset="0" stop-color="#4FD1C5" stop-opacity="0.08"/>
      <stop offset="1" stop-color="#0F766E" stop-opacity="0.01"/>
    </linearGradient>

    <!-- Shield facet gradient C (lower) -->
    <linearGradient id="facet-c" x1="100" y1="170" x2="100" y2="100" gradientUnits="userSpaceOnUse">
      <stop offset="0" stop-color="#0D9488" stop-opacity="0.08"/>
      <stop offset="1" stop-color="#134E4A" stop-opacity="0.01"/>
    </linearGradient>

    <!-- Circuit trace gradient -->
    <linearGradient id="circuit-grad" x1="40" y1="40" x2="160" y2="160" gradientUnits="userSpaceOnUse">
      <stop offset="0" stop-color="#2DD4BF" stop-opacity="0.6"/>
      <stop offset="0.5" stop-color="#14B8A6" stop-opacity="0.3"/>
      <stop offset="1" stop-color="#0D9488" stop-opacity="0.5"/>
    </linearGradient>

    <!-- Axial beam gradient (vertical) -->
    <linearGradient id="axial-beam" x1="100" y1="25" x2="100" y2="175" gradientUnits="userSpaceOnUse">
      <stop offset="0" stop-color="#5EEAD4" stop-opacity="0.4"/>
      <stop offset="0.35" stop-color="#2DD4BF" stop-opacity="0.15"/>
      <stop offset="0.5" stop-color="#FBBF24" stop-opacity="0.6"/>
      <stop offset="0.65" stop-color="#2DD4BF" stop-opacity="0.15"/>
      <stop offset="1" stop-color="#5EEAD4" stop-opacity="0.4"/>
    </linearGradient>

    <!-- Specular highlight (top facet) -->
    <linearGradient id="specular-top" x1="100" y1="4" x2="100" y2="55" gradientUnits="userSpaceOnUse">
      <stop offset="0" stop-color="#CCFBF1" stop-opacity="0.25"/>
      <stop offset="1" stop-color="#0F766E" stop-opacity="0"/>
    </linearGradient>

    <!-- Gold accent gradient -->
    <linearGradient id="gold-accent" x1="70" y1="70" x2="130" y2="130" gradientUnits="userSpaceOnUse">
      <stop offset="0" stop-color="#FDE68A"/>
      <stop offset="0.5" stop-color="#FBBF24"/>
      <stop offset="1" stop-color="#D97706"/>
    </linearGradient>

    <!-- ============ PATTERNS ============ -->

    <!-- Hex micro-grid pattern -->
    <pattern id="hex-grid" width="20" height="17.32" patternUnits="userSpaceOnUse" patternTransform="rotate(30)">
      <path d="M10 0L20 5.77V11.55L10 17.32L0 11.55V5.77Z" fill="none" stroke="#2DD4BF" stroke-opacity="0.04" stroke-width="0.4"/>
    </pattern>

    <!-- Cross-hatch fortification pattern -->
    <pattern id="fortify-hatch" width="12" height="12" patternUnits="userSpaceOnUse" patternTransform="rotate(60)">
      <path d="M0 6H12" stroke="#4FD1C5" stroke-opacity="0.03" stroke-width="0.3"/>
      <path d="M6 0V12" stroke="#4FD1C5" stroke-opacity="0.025" stroke-width="0.3"/>
      <circle cx="6" cy="6" r="0.5" fill="#5EEAD4" fill-opacity="0.04"/>
    </pattern>

    <!-- ============ FILTERS ============ -->

    <!-- Outer shadow -->
    <filter id="outer-shadow" x="-10%" y="-5%" width="120%" height="120%" color-interpolation-filters="sRGB">
      <feDropShadow dx="0" dy="4" stdDeviation="8" flood-color="#020617" flood-opacity="0.7"/>
    </filter>

    <!-- Inner glow (teal ambient) -->
    <filter id="ambient-glow" x="20%" y="20%" width="60%" height="60%" filterUnits="objectBoundingBox" color-interpolation-filters="sRGB">
      <feGaussianBlur stdDeviation="12" result="blur"/>
      <feColorMatrix in="blur" type="matrix" values="0 0.6 0.5 0 0  0 0.8 0.7 0 0  0 0.5 0.8 0 0.1  0 0 0 0.8 0"/>
    </filter>

    <!-- Core bloom filter -->
    <filter id="core-bloom" x="30%" y="30%" width="40%" height="40%" filterUnits="objectBoundingBox" color-interpolation-filters="sRGB">
      <feGaussianBlur stdDeviation="6" result="blur"/>
      <feColorMatrix in="blur" type="matrix" values="1 0.8 0 0 0.1  0.8 0.6 0 0 0.05  0 0 0 0 0  0 0 0 1 0"/>
    </filter>

    <!-- Subtle noise texture -->
    <filter id="surface-noise" x="0%" y="0%" width="100%" height="100%" filterUnits="objectBoundingBox" color-interpolation-filters="sRGB">
      <feTurbulence type="fractalNoise" baseFrequency="1.8" numOctaves="4" seed="7" result="noise"/>
      <feColorMatrix in="noise" type="saturate" values="0"/>
      <feComponentTransfer>
        <feFuncA type="table" tableValues="0 0.04"/>
      </feComponentTransfer>
    </filter>

    <!-- Node glow -->
    <filter id="node-glow" x="-100%" y="-100%" width="300%" height="300%" color-interpolation-filters="sRGB">
      <feGaussianBlur stdDeviation="2.5" result="blur"/>
      <feComposite in="SourceGraphic" in2="blur" operator="over"/>
    </filter>

    <!-- Border bevel (metallic edge) -->
    <filter id="bevel" x="-5%" y="-5%" width="110%" height="110%" color-interpolation-filters="sRGB">
      <feGaussianBlur stdDeviation="1" result="blur"/>
      <feSpecularLighting in="blur" surfaceScale="3" specularConstant="0.6" specularExponent="20" result="spec">
        <fePointLight x="80" y="30" z="120"/>
      </feSpecularLighting>
      <feComposite in="spec" in2="SourceGraphic" operator="in" result="specOut"/>
      <feComposite in="SourceGraphic" in2="specOut" operator="arithmetic" k1="0" k2="1" k3="0.3" k4="0"/>
    </filter>

    <!-- ============ CLIP PATHS ============ -->

    <!-- Perfect regular hexagon, tightly fitted.
         Center: (100, 100). Circumradius R = 96 (nearly touching 200px edges).
         Flat-top orientation: vertices at angles 0°, 60°, 120°, 180°, 240°, 300°.
         x = 100 + 96*cos(angle), y = 100 + 96*sin(angle)
         Vertices (flat-top):
           ( 100 + 96*cos(30°),  100 - 96*sin(30°) ) = (183.14, 52)   top-right
           ( 100,                100 - 96          ) = (100,    4)     top
           ( 100 - 96*cos(30°),  100 - 96*sin(30°) ) = (16.86,  52)   top-left
           ( 100 - 96*cos(30°),  100 + 96*sin(30°) ) = (16.86,  148)  bottom-left
           ( 100,                100 + 96          ) = (100,    196)   bottom
           ( 100 + 96*cos(30°),  100 + 96*sin(30°) ) = (183.14, 148)  bottom-right
         Using pointy-top for better hex aesthetic:
           top:          (100, 4)
           top-right:    (183.14, 52)
           bottom-right: (183.14, 148)
           bottom:       (100, 196)
           bottom-left:  (16.86, 148)
           top-left:     (16.86, 52)
    -->
    <clipPath id="hex-clip">
      <polygon points="100,4 183.14,52 183.14,148 100,196 16.86,148 16.86,52"/>
    </clipPath>

    <!-- Inner hex for layered depth (R = 86) -->
    <clipPath id="hex-inner-clip">
      <polygon points="100,14 174.45,57 174.45,143 100,186 25.55,143 25.55,57"/>
    </clipPath>

    <!-- Shield hex (R = 70) for facet clipping -->
    <clipPath id="hex-shield-clip">
      <polygon points="100,30 160.62,65 160.62,135 100,170 39.38,135 39.38,65"/>
    </clipPath>
  </defs>

  <!-- ============ MAIN HEXAGON BODY ============ -->
  <g filter="url(#outer-shadow)">

    <!-- Base fill: midnight depth -->
    <polygon points="100,4 183.14,52 183.14,148 100,196 16.86,148 16.86,52"
             fill="url(#bg-midnight)"/>

    <!-- Depth field overlay -->
    <polygon points="100,4 183.14,52 183.14,148 100,196 16.86,148 16.86,52"
             fill="url(#depth-field)" opacity="0.7"/>

    <!-- ============ CLIPPED INTERIOR ============ -->
    <g clip-path="url(#hex-clip)">

      <!-- Hex micro-grid texture -->
      <rect x="10" y="0" width="180" height="200" fill="url(#hex-grid)"/>

      <!-- Fortification cross-hatch -->
      <rect x="10" y="0" width="180" height="200" fill="url(#fortify-hatch)"/>

      <!-- Surface noise texture -->
      <rect x="10" y="0" width="180" height="200" filter="url(#surface-noise)"/>

      <!-- ============ CRYSTALLINE FACETS ============ -->

      <!-- Upper-left facet -->
      <polygon points="100,4 16.86,52 16.86,100 100,100" fill="url(#facet-a)"/>
      <!-- Upper-right facet -->
      <polygon points="100,4 183.14,52 183.14,100 100,100" fill="url(#facet-b)"/>
      <!-- Lower-left facet -->
      <polygon points="16.86,100 16.86,148 100,196 100,100" fill="url(#facet-c)"/>
      <!-- Lower-right facet -->
      <polygon points="183.14,100 183.14,148 100,196 100,100" fill="url(#facet-c)" opacity="0.7"/>

      <!-- Specular highlight on top face -->
      <polygon points="100,4 183.14,52 100,65 16.86,52" fill="url(#specular-top)"/>

      <!-- ============ STRUCTURAL GEOMETRY (INNER HEX RINGS) ============ -->

      <!-- Inner hex ring 1 (R=80) -->
      <polygon points="100,20 169.28,60 169.28,140 100,180 30.72,140 30.72,60"
               fill="none" stroke="#2DD4BF" stroke-opacity="0.12" stroke-width="0.6"/>

      <!-- Inner hex ring 2 (R=60) -->
      <polygon points="100,40 151.96,70 151.96,130 100,160 48.04,130 48.04,70"
               fill="none" stroke="#2DD4BF" stroke-opacity="0.08" stroke-width="0.5"/>

      <!-- Inner hex ring 3 (R=40) — shield boundary -->
      <polygon points="100,60 134.64,80 134.64,120 100,140 65.36,120 65.36,80"
               fill="none" stroke="#14B8A6" stroke-opacity="0.15" stroke-width="0.7"/>

      <!-- Inner hex ring 4 (R=22) — core boundary -->
      <polygon points="100,78 119.05,89 119.05,111 100,122 80.95,111 80.95,89"
               fill="none" stroke="#FBBF24" stroke-opacity="0.2" stroke-width="0.6"/>

      <!-- ============ CIRCUIT TRACE NETWORK ============ -->

      <!-- Vertical axis beam -->
      <line x1="100" y1="10" x2="100" y2="190" stroke="url(#axial-beam)" stroke-width="1.5"/>

      <!-- Radial spokes from center to vertices -->
      <line x1="100" y1="100" x2="100" y2="10" stroke="#2DD4BF" stroke-opacity="0.1" stroke-width="0.5"/>
      <line x1="100" y1="100" x2="178" y2="55" stroke="#2DD4BF" stroke-opacity="0.08" stroke-width="0.5"/>
      <line x1="100" y1="100" x2="178" y2="145" stroke="#2DD4BF" stroke-opacity="0.08" stroke-width="0.5"/>
      <line x1="100" y1="100" x2="100" y2="190" stroke="#2DD4BF" stroke-opacity="0.1" stroke-width="0.5"/>
      <line x1="100" y1="100" x2="22" y2="145" stroke="#2DD4BF" stroke-opacity="0.08" stroke-width="0.5"/>
      <line x1="100" y1="100" x2="22" y2="55" stroke="#2DD4BF" stroke-opacity="0.08" stroke-width="0.5"/>

      <!-- Circuit traces: upper pathways -->
      <path d="M100 10 L100 40 L130 55 L152 70" stroke="url(#circuit-grad)" stroke-width="1" stroke-linecap="round" fill="none"/>
      <path d="M100 10 L100 40 L70 55 L48 70" stroke="url(#circuit-grad)" stroke-width="1" stroke-linecap="round" fill="none"/>

      <!-- Circuit traces: mid-lateral pathways -->
      <path d="M30 60 L48 70 L65 80 L81 89" stroke="url(#circuit-grad)" stroke-width="0.8" stroke-linecap="round" fill="none"/>
      <path d="M170 60 L152 70 L135 80 L119 89" stroke="url(#circuit-grad)" stroke-width="0.8" stroke-linecap="round" fill="none"/>

      <!-- Circuit traces: lower pathways -->
      <path d="M100 190 L100 160 L130 145 L152 130" stroke="url(#circuit-grad)" stroke-width="1" stroke-linecap="round" fill="none"/>
      <path d="M100 190 L100 160 L70 145 L48 130" stroke="url(#circuit-grad)" stroke-width="1" stroke-linecap="round" fill="none"/>

      <!-- Circuit traces: lower-lateral -->
      <path d="M30 140 L48 130 L65 120 L81 111" stroke="url(#circuit-grad)" stroke-width="0.8" stroke-linecap="round" fill="none"/>
      <path d="M170 140 L152 130 L135 120 L119 111" stroke="url(#circuit-grad)" stroke-width="0.8" stroke-linecap="round" fill="none"/>

      <!-- Horizontal cross-connections -->
      <path d="M48 70 L65 80" stroke="#2DD4BF" stroke-opacity="0.2" stroke-width="0.6" stroke-linecap="round" fill="none"/>
      <path d="M135 80 L152 70" stroke="#2DD4BF" stroke-opacity="0.2" stroke-width="0.6" stroke-linecap="round" fill="none"/>
      <path d="M65 80 L81 89" stroke="#14B8A6" stroke-opacity="0.25" stroke-width="0.7" stroke-linecap="round" fill="none"/>
      <path d="M119 89 L135 80" stroke="#14B8A6" stroke-opacity="0.25" stroke-width="0.7" stroke-linecap="round" fill="none"/>

      <!-- Mid-ring horizontal connectors -->
      <line x1="31" y1="100" x2="65" y2="100" stroke="#2DD4BF" stroke-opacity="0.1" stroke-width="0.5"/>
      <line x1="135" y1="100" x2="169" y2="100" stroke="#2DD4BF" stroke-opacity="0.1" stroke-width="0.5"/>
      <line x1="65" y1="100" x2="81" y2="100" stroke="#14B8A6" stroke-opacity="0.15" stroke-width="0.6"/>
      <line x1="119" y1="100" x2="135" y2="100" stroke="#14B8A6" stroke-opacity="0.15" stroke-width="0.6"/>

      <!-- ============ AMBIENT GLOW ============ -->
      <g filter="url(#ambient-glow)">
        <circle cx="100" cy="100" r="30" fill="#0D9488" fill-opacity="0.15"/>
      </g>

      <!-- ============ CORE ASSEMBLY ============ -->

      <!-- Core bloom -->
      <g filter="url(#core-bloom)">
        <circle cx="100" cy="100" r="20" fill="#FBBF24" fill-opacity="0.2"/>
      </g>

      <!-- Core radiance field -->
      <circle cx="100" cy="100" r="35" fill="url(#core-radiance)"/>

      <!-- Core outer ring -->
      <circle cx="100" cy="100" r="18" fill="none" stroke="#FBBF24" stroke-opacity="0.3" stroke-width="0.8"/>

      <!-- Core mid ring -->
      <circle cx="100" cy="100" r="13" fill="none" stroke="#FDE68A" stroke-opacity="0.35" stroke-width="0.6"/>

      <!-- Core shell: dark interior -->
      <circle cx="100" cy="100" r="9" fill="#0A1628" stroke="#FBBF24" stroke-opacity="0.7" stroke-width="1.2"/>

      <!-- Core hot center -->
      <circle cx="100" cy="100" r="7" fill="url(#core-hot)"/>

      <!-- Core inner detail rings -->
      <circle cx="100" cy="100" r="5" fill="none" stroke="#FDE68A" stroke-opacity="0.5" stroke-width="0.4"/>
      <circle cx="100" cy="100" r="3" fill="#FFFBEB" fill-opacity="0.9"/>
      <circle cx="100" cy="100" r="1.5" fill="#FFFFFF"/>

      <!-- ============ JUNCTION NODES ============ -->
      <g filter="url(#node-glow)">

        <!-- Vertex nodes (on hex ring 3, R=40) -->
        <circle cx="100" cy="60" r="3" fill="#2DD4BF" fill-opacity="0.8"/>
        <circle cx="134.64" cy="80" r="3" fill="#2DD4BF" fill-opacity="0.8"/>
        <circle cx="134.64" cy="120" r="3" fill="#2DD4BF" fill-opacity="0.8"/>
        <circle cx="100" cy="140" r="3" fill="#2DD4BF" fill-opacity="0.8"/>
        <circle cx="65.36" cy="120" r="3" fill="#2DD4BF" fill-opacity="0.8"/>
        <circle cx="65.36" cy="80" r="3" fill="#2DD4BF" fill-opacity="0.8"/>

        <!-- Core boundary nodes (on hex ring 4, R=22) -->
        <circle cx="100" cy="78" r="2.2" fill="#FBBF24" fill-opacity="0.7"/>
        <circle cx="119.05" cy="89" r="2.2" fill="#FBBF24" fill-opacity="0.7"/>
        <circle cx="119.05" cy="111" r="2.2" fill="#FBBF24" fill-opacity="0.7"/>
        <circle cx="100" cy="122" r="2.2" fill="#FBBF24" fill-opacity="0.7"/>
        <circle cx="80.95" cy="111" r="2.2" fill="#FBBF24" fill-opacity="0.7"/>
        <circle cx="80.95" cy="89" r="2.2" fill="#FBBF24" fill-opacity="0.7"/>

        <!-- Outer perimeter nodes (on hex ring 1, R=80) -->
        <circle cx="100" cy="20" r="2" fill="#5EEAD4" fill-opacity="0.5"/>
        <circle cx="169.28" cy="60" r="2" fill="#5EEAD4" fill-opacity="0.5"/>
        <circle cx="169.28" cy="140" r="2" fill="#5EEAD4" fill-opacity="0.5"/>
        <circle cx="100" cy="180" r="2" fill="#5EEAD4" fill-opacity="0.5"/>
        <circle cx="30.72" cy="140" r="2" fill="#5EEAD4" fill-opacity="0.5"/>
        <circle cx="30.72" cy="60" r="2" fill="#5EEAD4" fill-opacity="0.5"/>

        <!-- Mid-edge junction nodes -->
        <circle cx="48" cy="70" r="1.8" fill="#14B8A6" fill-opacity="0.6"/>
        <circle cx="152" cy="70" r="1.8" fill="#14B8A6" fill-opacity="0.6"/>
        <circle cx="48" cy="130" r="1.8" fill="#14B8A6" fill-opacity="0.6"/>
        <circle cx="152" cy="130" r="1.8" fill="#14B8A6" fill-opacity="0.6"/>

        <!-- Edge midpoint nodes -->
        <circle cx="141.57" cy="28" r="1.5" fill="#5EEAD4" fill-opacity="0.35"/>
        <circle cx="58.43" cy="28" r="1.5" fill="#5EEAD4" fill-opacity="0.35"/>
        <circle cx="141.57" cy="172" r="1.5" fill="#5EEAD4" fill-opacity="0.35"/>
        <circle cx="58.43" cy="172" r="1.5" fill="#5EEAD4" fill-opacity="0.35"/>
      </g>

      <!-- ============ SIGNAL PULSES ============ -->

      <!-- Radial pulse lines from core to shield vertices -->
      <line x1="100" y1="78" x2="100" y2="63" stroke="#FDE68A" stroke-opacity="0.4" stroke-width="1.5" stroke-linecap="round"/>
      <line x1="119" y1="89" x2="132" y2="82" stroke="#FDE68A" stroke-opacity="0.35" stroke-width="1.2" stroke-linecap="round"/>
      <line x1="119" y1="111" x2="132" y2="118" stroke="#FDE68A" stroke-opacity="0.3" stroke-width="1.2" stroke-linecap="round"/>
      <line x1="100" y1="122" x2="100" y2="137" stroke="#FDE68A" stroke-opacity="0.4" stroke-width="1.5" stroke-linecap="round"/>
      <line x1="81" y1="111" x2="68" y2="118" stroke="#FDE68A" stroke-opacity="0.3" stroke-width="1.2" stroke-linecap="round"/>
      <line x1="81" y1="89" x2="68" y2="82" stroke="#FDE68A" stroke-opacity="0.35" stroke-width="1.2" stroke-linecap="round"/>

      <!-- Teal data streams along vertical axis -->
      <line x1="100" y1="18" x2="100" y2="30" stroke="#5EEAD4" stroke-opacity="0.5" stroke-width="2" stroke-linecap="round"/>
      <line x1="100" y1="170" x2="100" y2="182" stroke="#5EEAD4" stroke-opacity="0.5" stroke-width="2" stroke-linecap="round"/>

    </g>

    <!-- ============ OUTER HEX BORDER ============ -->

    <!-- Primary metallic border -->
    <polygon points="100,4 183.14,52 183.14,148 100,196 16.86,148 16.86,52"
             fill="none" stroke="url(#border-steel)" stroke-width="3"/>

    <!-- Inner border accent -->
    <polygon points="100,8 180.68,54 180.68,146 100,192 19.32,146 19.32,54"
             fill="none" stroke="url(#border-inner)" stroke-width="0.8"/>

    <!-- Top edge highlight (specular) -->
    <line x1="22" y1="52" x2="100" y2="6" stroke="#CCFBF1" stroke-opacity="0.35" stroke-width="1.5" stroke-linecap="round"/>
    <line x1="100" y1="6" x2="178" y2="52" stroke="#99F6E4" stroke-opacity="0.25" stroke-width="1.2" stroke-linecap="round"/>

    <!-- Bottom edge shadow line -->
    <line x1="22" y1="148" x2="100" y2="194" stroke="#042F2E" stroke-opacity="0.4" stroke-width="1" stroke-linecap="round"/>
    <line x1="100" y1="194" x2="178" y2="148" stroke="#042F2E" stroke-opacity="0.4" stroke-width="1" stroke-linecap="round"/>

    <!-- Vertex accent dots -->
    <circle cx="100" cy="4" r="2" fill="#5EEAD4" fill-opacity="0.6"/>
    <circle cx="183.14" cy="52" r="1.5" fill="#2DD4BF" fill-opacity="0.4"/>
    <circle cx="183.14" cy="148" r="1.5" fill="#2DD4BF" fill-opacity="0.4"/>
    <circle cx="100" cy="196" r="2" fill="#14B8A6" fill-opacity="0.5"/>
    <circle cx="16.86" cy="148" r="1.5" fill="#2DD4BF" fill-opacity="0.4"/>
    <circle cx="16.86" cy="52" r="1.5" fill="#2DD4BF" fill-opacity="0.4"/>

  </g>
</svg>
