<svg xmlns="http://www.w3.org/2000/svg" width="200" height="200" viewBox="0 0 200 200" role="img" aria-labelledby="citadel-title citadel-desc">
  <title id="citadel-title">Citadel</title>
  <desc id="citadel-desc">A hexagonal fortress kernel with towers, policy gate, authority key, shield, and governance packet paths.</desc>
  <defs>
    <clipPath id="citadel-hex">
      <path d="M100 4 L183 52 L183 148 L100 196 L17 148 L17 52 Z"/>
    </clipPath>
    <linearGradient id="citadel-bg" x1="35" y1="24" x2="169" y2="181" gradientUnits="userSpaceOnUse">
      <stop offset="0" stop-color="#30364d"/>
      <stop offset="0.55" stop-color="#151b2a"/>
      <stop offset="1" stop-color="#080b12"/>
    </linearGradient>
    <linearGradient id="citadel-stone" x1="54" y1="63" x2="149" y2="152" gradientUnits="userSpaceOnUse">
      <stop offset="0" stop-color="#d9e6ff"/>
      <stop offset="0.55" stop-color="#8ea2c8"/>
      <stop offset="1" stop-color="#4d5d79"/>
    </linearGradient>
    <filter id="citadel-shadow" x="-20%" y="-20%" width="140%" height="140%">
      <feDropShadow dx="0" dy="7" stdDeviation="5" flood-color="#000000" flood-opacity="0.42"/>
    </filter>
  </defs>
  <g clip-path="url(#citadel-hex)">
    <path d="M100 4 L183 52 L183 148 L100 196 L17 148 L17 52 Z" fill="url(#citadel-bg)"/>
    <g stroke="#7aa7ff" stroke-width="2" opacity="0.28" fill="none">
      <path d="M42 55 L100 25 L158 55"/>
      <path d="M38 145 L100 176 L162 145"/>
      <path d="M100 25 V176"/>
      <path d="M48 76 H152"/>
      <path d="M42 124 H158"/>
    </g>
    <g filter="url(#citadel-shadow)">
      <path d="M54 84 H146 V143 H54 Z" fill="url(#citadel-stone)" stroke="#f7fbff" stroke-width="2.5"/>
      <path d="M64 66 H88 V143 H64 Z" fill="url(#citadel-stone)" stroke="#f7fbff" stroke-width="2.5"/>
      <path d="M112 66 H136 V143 H112 Z" fill="url(#citadel-stone)" stroke="#f7fbff" stroke-width="2.5"/>
      <path d="M82 76 H118 V143 H82 Z" fill="url(#citadel-stone)" stroke="#f7fbff" stroke-width="2.5"/>
      <path d="M58 84 V72 H68 V84 H78 V72 H88 V84 H112 V72 H122 V84 H132 V72 H142 V84" fill="none" stroke="#f7fbff" stroke-width="2.5" stroke-linejoin="round"/>
      <path d="M88 143 V117 C88 101 112 101 112 117 V143 Z" fill="#111827" stroke="#ffe08a" stroke-width="2.5"/>
    </g>
    <g fill="#111827" stroke="#f7fbff" stroke-width="2">
      <rect x="70" y="92" width="12" height="15" rx="3"/>
      <rect x="118" y="92" width="12" height="15" rx="3"/>
      <path d="M92 61 L100 50 L108 61 L104 73 H96 Z"/>
    </g>
    <g fill="none" stroke-linecap="round" stroke-linejoin="round">
      <path d="M46 114 C35 103 35 85 47 72" stroke="#ffe08a" stroke-width="4"/>
      <path d="M154 114 C165 103 165 85 153 72" stroke="#ffe08a" stroke-width="4"/>
      <path d="M124 54 C128 45 140 43 146 50 C152 57 149 67 140 70 L135 75 L129 69 L134 64" stroke="#8affc1" stroke-width="4"/>
      <path d="M98 124 H102 M96 132 H104" stroke="#ffe08a" stroke-width="2.5"/>
    </g>
    <path d="M100 106 L124 119 C121 142 110 157 100 163 C90 157 79 142 76 119 Z" fill="#17223a" stroke="#8affc1" stroke-width="3"/>
    <path d="M88 128 L98 138 L118 119" fill="none" stroke="#8affc1" stroke-width="4.2" stroke-linecap="round" stroke-linejoin="round"/>
    <path d="M100 4 L183 52 L183 148 L100 196 L17 148 L17 52 Z" fill="none" stroke="#f7fbff" stroke-width="4"/>
  </g>
</svg>
